<svg width="48" height="48" viewBox="0 0 48 48" fill="none" xmlns="http://www.w3.org/2000/svg">
<path d="M41.43 42.846L36.338 37.792C35.7327 38.1747 35.084 38.4847 34.392 38.722C33.7013 38.958 32.9813 39.076 32.232 39.076C30.3467 39.076 28.734 38.4067 27.394 37.068C26.054 35.728 25.384 34.1153 25.384 32.23C25.384 30.346 26.054 28.734 27.394 27.394C28.734 26.054 30.346 25.384 32.23 25.384C34.1153 25.384 35.728 26.054 37.068 27.394C38.4067 28.734 39.076 30.346 39.076 32.23C39.076 32.9687 38.9707 33.6933 38.76 34.404C38.548 35.1147 38.2127 35.7593 37.754 36.338L42.846 41.43L41.43 42.846ZM32.222 37.076C33.5767 37.076 34.7247 36.6087 35.666 35.674C36.606 34.7393 37.076 33.5947 37.076 32.24C37.076 30.8853 36.6087 29.7373 35.674 28.796C34.7393 27.8547 33.5947 27.384 32.24 27.384C30.8853 27.384 29.7373 27.852 28.796 28.788C27.8547 29.7227 27.384 30.8673 27.384 32.222C27.384 33.5767 27.852 34.7247 28.788 35.666C29.7227 36.606 30.8673 37.076 32.222 37.076ZM40 20H38V10H32V14.46H16V10H10V38H21V40H8V8.00001H20.504C20.6907 7.21734 21.106 6.56001 21.75 6.02801C22.394 5.49601 23.144 5.23001 24 5.23001C24.872 5.23001 25.628 5.49668 26.268 6.03001C26.908 6.56068 27.3213 7.21734 27.508 8.00001H40V20ZM24.006 10.46C24.466 10.46 24.8493 10.3053 25.156 9.99601C25.4627 9.68401 25.616 9.29868 25.616 8.84001C25.616 8.38001 25.4607 7.99668 25.15 7.69001C24.838 7.38334 24.4527 7.23001 23.994 7.23001C23.534 7.23001 23.1507 7.38601 22.844 7.69801C22.5373 8.00868 22.384 8.39334 22.384 8.85201C22.384 9.31201 22.5393 9.69534 22.85 10.002C23.162 10.3087 23.5473 10.46 24.006 10.46Z" fill="white"/>
</svg>
