<svg width="96" height="97" viewBox="0 0 96 97" fill="none" xmlns="http://www.w3.org/2000/svg">
<path d="M12.5 5C18.3 5 23 9.7 23 15.5C23 20.8 19.1 25.2 14 25.9V47H47V25.9C41.9 25.2 38 20.8 38 15.5C38 9.7 42.7 5 48.5 5C54.3 5 59 9.7 59 15.5C59 20.8 55.1 25.2 50 25.9V47H74C79 47 83 43 83 38V25.9C77.9 25.2 74 20.8 74 15.5C74 9.7 78.7 5 84.5 5C90.3 5 95 9.7 95 15.5C95 20.8 91.1 25.2 86 25.9V38C86 44.6 80.6 50 74 50H50V71.1C55.1 71.8 59 76.2 59 81.5C59 87.3 54.3 92 48.5 92C42.7 92 38 87.3 38 81.5C38 76.2 41.9 71.8 47 71.1V50H14V71.1C19.1 71.8 23 76.2 23 81.5C23 87.3 18.3 92 12.5 92C6.7 92 2 87.3 2 81.5C2 76.2 5.9 71.8 11 71.1V50V47V25.9C5.9 25.2 2 20.8 2 15.5C2 9.7 6.7 5 12.5 5ZM84.5 8C80.4 8 77 11.4 77 15.5C77 19.6 80.4 23 84.5 23C88.6 23 92 19.6 92 15.5C92 11.4 88.6 8 84.5 8ZM48.5 74C44.4 74 41 77.4 41 81.5C41 85.6 44.4 89 48.5 89C52.6 89 56 85.6 56 81.5C56 77.4 52.6 74 48.5 74ZM48.5 8C44.4 8 41 11.4 41 15.5C41 19.6 44.4 23 48.5 23C52.6 23 56 19.6 56 15.5C56 11.4 52.6 8 48.5 8ZM12.5 74C8.4 74 5 77.4 5 81.5C5 85.6 8.4 89 12.5 89C16.6 89 20 85.6 20 81.5C20 77.4 16.6 74 12.5 74ZM12.5 8C8.4 8 5 11.4 5 15.5C5 19.6 8.4 23 12.5 23C16.6 23 20 19.6 20 15.5C20 11.4 16.6 8 12.5 8Z" fill="black"/>
</svg>
