<svg xmlns="http://www.w3.org/2000/svg" xmlns:xlink="http://www.w3.org/1999/xlink" version="1.1" x="0px" y="0px" viewBox="0 0 96 120" style="enable-background:new 0 0 96 96;" xml:space="preserve"><path d="M13.5,3C19.3,3,24,7.7,24,13.5c0,5.3-3.9,9.7-9,10.4V45h33V23.9c-5.1-0.7-9-5.1-9-10.4C39,7.7,43.7,3,49.5,3S60,7.7,60,13.5  c0,5.3-3.9,9.7-9,10.4V45h24c5,0,9-4,9-9V23.9c-5.1-0.7-9-5.1-9-10.4C75,7.7,79.7,3,85.5,3S96,7.7,96,13.5c0,5.3-3.9,9.7-9,10.4V36  c0,6.6-5.4,12-12,12H51v21.1c5.1,0.7,9,5.1,9,10.4C60,85.3,55.3,90,49.5,90S39,85.3,39,79.5c0-5.3,3.9-9.7,9-10.4V48H15v21.1  c5.1,0.7,9,5.1,9,10.4C24,85.3,19.3,90,13.5,90S3,85.3,3,79.5c0-5.3,3.9-9.7,9-10.4V48v-3V23.9c-5.1-0.7-9-5.1-9-10.4  C3,7.7,7.7,3,13.5,3L13.5,3z M85.5,6C81.4,6,78,9.4,78,13.5s3.4,7.5,7.5,7.5s7.5-3.4,7.5-7.5S89.6,6,85.5,6L85.5,6z M49.5,72  c-4.1,0-7.5,3.4-7.5,7.5s3.4,7.5,7.5,7.5s7.5-3.4,7.5-7.5S53.6,72,49.5,72L49.5,72z M49.5,6C45.4,6,42,9.4,42,13.5s3.4,7.5,7.5,7.5  s7.5-3.4,7.5-7.5S53.6,6,49.5,6L49.5,6z M13.5,72C9.4,72,6,75.4,6,79.5S9.4,87,13.5,87s7.5-3.4,7.5-7.5S17.6,72,13.5,72L13.5,72z   M13.5,6C9.4,6,6,9.4,6,13.5S9.4,21,13.5,21s7.5-3.4,7.5-7.5S17.6,6,13.5,6z"/><text x="0" y="111" fill="#000000" font-size="5px" font-weight="bold" font-family="'Helvetica Neue', Helvetica, Arial-Unicode, Arial, Sans-serif">Created by Stanislav Levin</text><text x="0" y="116" fill="#000000" font-size="5px" font-weight="bold" font-family="'Helvetica Neue', Helvetica, Arial-Unicode, Arial, Sans-serif">from the Noun Project</text></svg>