<?xml version="1.0" encoding="utf-8"?>
<!-- Generator: Adobe Illustrator 27.5.0, SVG Export Plug-In . SVG Version: 6.00 Build 0)  -->
<svg version="1.1" xmlns="http://www.w3.org/2000/svg" xmlns:xlink="http://www.w3.org/1999/xlink" x="0px" y="0px"
	 viewBox="0 0 750 500" style="enable-background:new 0 0 750 500;" xml:space="preserve">
<g id="BACKGROUND">
</g>
<g id="OBJECTS">
	<g>
		<path style="fill:#F4DBDA;" d="M0,413.684c0,0,337.339-74.394,750-133.091V500H0V413.684z"/>
		<g>
			
				<ellipse transform="matrix(0.9911 -0.1334 0.1334 0.9911 -49.8427 55.1538)" style="fill:#1D1D1B;" cx="386.7" cy="399.561" rx="292.283" ry="31.858"/>
			<g>
				
					<path style="fill:#1D1D1B;stroke:#1D1D1B;stroke-width:0.75;stroke-linecap:round;stroke-linejoin:round;stroke-miterlimit:10;" d="
					M665.383,300.9l-2.009,24.78h-24.552l-0.889-23.388l-4.489,0.342v7l-10.246,11.915c0,0,3.571,1.452,3.571,5.469
					s-3.571,5.58-3.571,5.58h37.275l-0.223,10.937l-51.114,2.009l-10.044-43.079l66.292-4.464V300.9z"/>
				<path style="fill:#9D4747;" d="M579.691,306.733c0,0,4.668-8.234,13.596-7.366c8.928,0.868,15.401,12.698,17.187,25.867
					c1.786,13.169,0,43.748,0,43.748h-14.995L579.691,306.733z"/>
				<g>
					<path style="fill:#4F5151;" d="M576.886,307.463h-24.264c-16.383,0-29.664,17.949-29.664,40.09
						c0,22.141,13.281,40.09,29.664,40.09h24.264c16.383,0,29.664-17.949,29.664-40.09
						C606.55,325.413,593.269,307.463,576.886,307.463z"/>
					
						<path style="fill:none;stroke:#1D1D1B;stroke-width:0.75;stroke-linecap:round;stroke-linejoin:round;stroke-miterlimit:10;" d="
						M576.886,387.644c-16.383,0-29.664-17.949-29.664-40.09c0-22.141,13.281-40.09,29.664-40.09"/>
					
						<path style="fill:none;stroke:#1D1D1B;stroke-width:0.75;stroke-linecap:round;stroke-linejoin:round;stroke-miterlimit:10;" d="
						M569.694,387.644c-16.383,0-29.664-17.949-29.664-40.09"/>
					
						<path style="fill:none;stroke:#1D1D1B;stroke-width:0.75;stroke-linecap:round;stroke-linejoin:round;stroke-miterlimit:10;" d="
						M558.696,387.644c-16.383,0-29.664-17.949-29.664-40.09"/>
					<ellipse style="fill:#E2EDF4;" cx="576.886" cy="347.554" rx="14.832" ry="20.045"/>
					<path style="fill:#4F5151;" d="M583.261,347.554c0,4.758-2.854,8.616-6.375,8.616c-3.521,0-6.375-3.857-6.375-8.616
						s2.854-8.616,6.375-8.616C580.407,338.938,583.261,342.796,583.261,347.554z"/>
				</g>
				<polygon style="fill:#3D3D3F;" points="407.357,265.42 556.885,260.949 558.021,308.27 564.717,314.744 532.352,318.537 
					532.129,361.169 526.549,359.83 526.549,365.857 415.839,382.151 413.384,375.008 407.357,375.008 405.349,319.653 				"/>
				<path style="fill:#FA5C62;" d="M668.737,257.604l-257.139,7.816l-1.339,54.233l22.071-1.683v25.566l73.907-8.482v-22.72
					l-7.898,0.602l169.499-12.925L668.737,257.604z M479.229,303.971c0-2.543,2.061-4.604,4.605-4.604h2.398
					c2.543,0,4.604,2.061,4.604,4.604v1.058c0,2.543-2.061,4.604-4.604,4.604h-2.398c-2.543,0-4.605-2.061-4.605-4.604V303.971z
					 M431.464,309.211c0,2.543-2.061,4.604-4.604,4.604h-2.398c-2.543,0-4.604-2.061-4.604-4.604v-1.059
					c0-2.543,2.061-4.604,4.604-4.604h2.398c2.543,0,4.604,2.061,4.604,4.604V309.211z M545.745,301.429
					c0,2.543-2.061,4.605-4.604,4.605h-2.398c-2.543,0-4.604-2.061-4.604-4.605v-1.058c0-2.543,2.062-4.604,4.604-4.604h2.398
					c2.543,0,4.604,2.061,4.604,4.604V301.429z"/>
				<polygon style="fill:#7FAFB5;" points="314.942,79.038 407.357,76.36 407.357,265.42 211.076,267.87 281.375,82.386 				"/>
				<g>
					<path style="fill:#3D3D3F;" d="M297.776,125.025c0,0,38.156,2.226,45.075,4.011c6.919,1.786,21.57,10.209,24.512,21.064
						l-83.884-5.886l-5.293-16.74L297.776,125.025z"/>
					<polygon style="fill:#1D1D1B;" points="286.957,132.477 316.178,126.247 297.776,125.025 283.479,131.045 					"/>
				</g>
				<polygon style="fill:#9FD0D9;" points="407.357,76.36 670.851,117.876 672.525,257.491 407.357,265.42 				"/>
				<g>
					<polygon style="fill:#9D4747;" points="407.357,265.42 405.349,319.653 360.846,314.744 364.279,266.307 					"/>
					<polygon style="fill:#4F5151;" points="405.349,319.653 407.357,375.008 357.561,367.196 360.846,314.744 					"/>
					
						<polygon style="fill:#1D1D1B;stroke:#1D1D1B;stroke-width:0.75;stroke-linecap:round;stroke-linejoin:round;stroke-miterlimit:10;" points="
						407.357,375.008 413.384,375.008 415.839,382.151 360.846,371.437 357.561,367.196 					"/>
				</g>
				
					<line style="fill:none;stroke:#1D1D1B;stroke-width:0.75;stroke-linecap:round;stroke-linejoin:round;stroke-miterlimit:10;" x1="411.086" y1="286.176" x2="668.368" y2="275.009"/>
				
					<polygon style="fill:#1D1D1B;stroke:#1D1D1B;stroke-width:0.75;stroke-linecap:round;stroke-linejoin:round;stroke-miterlimit:10;" points="
					526.549,359.83 526.549,310.785 558.021,308.27 560.906,311.06 529.41,313.633 528.389,360.272 				"/>
				<g>
					<g>
						<path style="fill:#9D4747;" d="M371.198,314.966c0,0,17.075,3.962,22.097,27.398c5.022,23.436,1.172,40.679,1.172,40.679
							l-75.223-17.159l6.42-41.098l34.318-13.727L371.198,314.966z"/>
						<g>
							<path style="fill:#4F5151;" d="M352.053,333.59h-29.564c-19.961,0-36.142,20.252-36.142,45.233
								c0,24.982,16.181,45.234,36.142,45.234h29.564c19.961,0,36.143-20.252,36.143-45.234
								C388.196,353.842,372.014,333.59,352.053,333.59z"/>
							
								<path style="fill:none;stroke:#1D1D1B;stroke-width:0.75;stroke-linecap:round;stroke-linejoin:round;stroke-miterlimit:10;" d="
								M352.053,424.057c-19.961,0-36.143-20.252-36.143-45.234c0-24.982,16.182-45.234,36.143-45.234"/>
							
								<path style="fill:none;stroke:#1D1D1B;stroke-width:0.75;stroke-linecap:round;stroke-linejoin:round;stroke-miterlimit:10;" d="
								M343.29,424.057c-19.961,0-36.143-20.252-36.143-45.234"/>
							
								<path style="fill:none;stroke:#1D1D1B;stroke-width:0.75;stroke-linecap:round;stroke-linejoin:round;stroke-miterlimit:10;" d="
								M329.89,424.057c-19.961,0-36.143-20.252-36.143-45.234"/>
							<ellipse style="fill:#E2EDF4;" cx="352.053" cy="378.824" rx="18.071" ry="22.617"/>
							<ellipse style="fill:#4F5151;" cx="352.053" cy="378.824" rx="7.767" ry="9.721"/>
						</g>
					</g>
					<g>
						<path style="fill:#9D4747;" d="M208.849,304.593c0,0,17.075,3.962,22.097,27.398c5.022,23.436,1.172,40.679,1.172,40.679
							l-75.223-17.159l6.42-41.098l34.318-13.727L208.849,304.593z"/>
						<g>
							<path style="fill:#4F5151;" d="M189.704,323.217H160.14c-19.961,0-36.143,20.252-36.143,45.234
								c0,24.982,16.182,45.233,36.143,45.233h29.564c19.961,0,36.143-20.252,36.143-45.233
								C225.846,343.469,209.665,323.217,189.704,323.217z"/>
							
								<path style="fill:none;stroke:#1D1D1B;stroke-width:0.75;stroke-linecap:round;stroke-linejoin:round;stroke-miterlimit:10;" d="
								M189.704,413.684c-19.961,0-36.143-20.252-36.143-45.234c0-24.982,16.182-45.234,36.143-45.234"/>
							
								<path style="fill:none;stroke:#1D1D1B;stroke-width:0.75;stroke-linecap:round;stroke-linejoin:round;stroke-miterlimit:10;" d="
								M180.94,413.684c-19.961,0-36.143-20.252-36.143-45.234"/>
							
								<path style="fill:none;stroke:#1D1D1B;stroke-width:0.75;stroke-linecap:round;stroke-linejoin:round;stroke-miterlimit:10;" d="
								M167.54,413.684c-19.961,0-36.143-20.252-36.143-45.234"/>
							<ellipse style="fill:#E2EDF4;" cx="189.704" cy="368.45" rx="18.071" ry="22.617"/>
							<ellipse style="fill:#4F5151;" cx="189.704" cy="368.45" rx="7.767" ry="9.721"/>
						</g>
					</g>
					<g>
						<g>
							<path style="fill:#3D3D3F;" d="M96.25,239.833H77.867c-1.889,0-3.42-1.531-3.42-3.42v-61.189c0-1.889,1.531-3.42,3.42-3.42
								H96.25c1.889,0,3.42,1.531,3.42,3.42v61.189C99.67,238.302,98.138,239.833,96.25,239.833z"/>
						</g>
						
							<path style="fill:none;stroke:#1D1D1B;stroke-width:0.75;stroke-linecap:round;stroke-linejoin:round;stroke-miterlimit:10;" d="
							M97.214,174.79v61.078c0,0-0.67,2.685-3.795,2.685"/>
					</g>
					<path style="fill:#FA5C62;" d="M91.467,330.311l-8.319-7.087l2.743-83.479l14.337-72.095H90.63v-10.044l15.178-19.196h4.464
						c0,0,36.606-44.641,56.248-62.497c0,0,104.237-14.062,158.476-13.169l5.134,6.027v42.632l-46.65,19.642l7.589,3.125
						l2.455,10.267l81.495,6.25l3.993,7.366l7.812,137.048l-2.009,7.589h-15.401c0,0,4.687,7.812,4.687,9.598
						c0,1.786-2.902,2.678-2.902,2.678s-14.732-3.348-29.91,7.366c-15.178,10.714-19.865,27.231-21.651,40.4
						c-1.786,13.169-2.902,36.829-2.902,36.829h-26.338L91.467,330.311z"/>
					<path style="fill:#B4D3F3;" d="M330.661,236.026h-51.758v-73.732h49.766c5.718,0,10.353,4.635,10.353,10.353v55.018
						C339.022,232.283,335.279,236.026,330.661,236.026z"/>
					<g>
						<g>
							<polygon style="fill:#3D3D3F;" points="270.131,338.74 265.69,336.948 269.254,328.116 269.254,231.132 274.043,231.132 
								274.043,329.046 							"/>
						</g>
						
							<polyline style="fill:none;stroke:#1D1D1B;stroke-width:0.75;stroke-linecap:round;stroke-linejoin:round;stroke-miterlimit:10;" points="
							270.131,338.74 274.043,329.046 274.043,231.132 						"/>
					</g>
					<g>
						<g>
							<polygon style="fill:#B4D3F3;" points="102.236,167.428 262.274,162.294 262.274,231.132 255.801,237.291 96.433,240.639 
								91.22,237.514 90.407,231.132 							"/>
							<g>
								<g>
									<path style="fill:#8E8E8E;" d="M259.373,226.354c-1.012-0.308-2.602-0.607-4.555-0.88
										c-2.178-6.307-8.16-10.856-15.198-10.856c-6.803,0-12.619,4.25-14.969,10.229c-9.877,1.806-36.48,9.097-36.48,9.097
										s-73.658,0.446-82.147,1.339c-8.49,0.893-11.079,4.464-11.079,4.464l1.489,0.893l128.831-2.706l4.407-0.093l20.195-0.424
										l4.403-0.092l1.533-0.032l6.473-6.159C262.274,231.132,264.506,227.916,259.373,226.354z M229.189,224.299
										c2.16-3.503,6.021-5.851,10.43-5.851c4.684,0,8.758,2.643,10.821,6.513C243.66,224.297,234.97,223.941,229.189,224.299z"/>
									
										<polyline style="fill:none;stroke:#1D1D1B;stroke-width:0.75;stroke-linecap:round;stroke-linejoin:round;stroke-miterlimit:10;" points="
										224.65,224.846 229.189,224.299 250.44,224.962 254.817,225.473 									"/>
									
										<polyline style="fill:none;stroke:#1D1D1B;stroke-width:0.75;stroke-linecap:round;stroke-linejoin:round;stroke-miterlimit:10;" points="
										96.813,238.15 254.817,235.282 260.712,228.809 									"/>
								</g>
								<g>
									<path style="fill:#FFD367;" d="M253.318,218.449c0,0-1.869-3.702-3.431-4.371s-2.79,0-2.79,0s-2.862-1.786-3.273-1.562
										c-0.41,0.223-0.968,0.67-0.968,0.67s-2.449-1.043-3.121-0.689c-0.673,0.354-0.673,0.354-0.673,0.354
										s-2.232-0.335-2.902,0.67c0,0-1.418,0.484-1.602,1.916c-0.184,1.432,0.016,2.697,1.155,3.013c0,0,0.893,1.246,2.455,0
										c0,0,2.12,1.135,2.79,0c0,0,1.49,0.95,2.866,0.745l1.891-3.371c0,0,5.102,2.714,6.991,5.883L253.318,218.449z"/>
									
										<path style="fill:none;stroke:#1D1D1B;stroke-width:0.75;stroke-linecap:round;stroke-linejoin:round;stroke-miterlimit:10;" d="
										M247.096,214.077c0,0-1.298,1.361,0,2.392"/>
									
										<path style="fill:none;stroke:#1D1D1B;stroke-width:0.75;stroke-linecap:round;stroke-linejoin:round;stroke-miterlimit:10;" d="
										M242.855,213.184c0,0-2.316,3.72-1.897,5.264"/>
									
										<path style="fill:none;stroke:#1D1D1B;stroke-width:0.75;stroke-linecap:round;stroke-linejoin:round;stroke-miterlimit:10;" d="
										M239.061,212.85c0,0-1.172,4.557-0.893,5.599"/>
									
										<path style="fill:none;stroke:#1D1D1B;stroke-width:0.75;stroke-linecap:round;stroke-linejoin:round;stroke-miterlimit:10;" d="
										M236.506,213.184c0,0-0.623,4.81-0.403,5.264"/>
								</g>
							</g>
						</g>
						<g>
							<polygon style="fill:#F5FAFF;" points="118.754,239.746 138.931,239.746 190.095,164.609 171.006,165.172 							"/>
							<polygon style="fill:#F5FAFF;" points="143.18,239.746 150.758,239.746 201.922,164.609 195.432,165.172 							"/>
						</g>
					</g>
					<g>
						
							<polyline style="fill:none;stroke:#1D1D1B;stroke-width:0.75;stroke-linecap:round;stroke-linejoin:round;stroke-miterlimit:10;" points="
							95.382,330.471 87.058,321.885 89.29,251.576 93.531,239.746 						"/>
						
							<polygon style="fill:#1D1D1B;stroke:#1D1D1B;stroke-width:0.75;stroke-linecap:round;stroke-linejoin:round;stroke-miterlimit:10;" points="
							100.228,167.651 270.645,161.401 270.645,166.088 99.425,171.686 						"/>
						
							<path style="fill:none;stroke:#1D1D1B;stroke-width:0.75;stroke-linecap:round;stroke-linejoin:round;stroke-miterlimit:10;" d="
							M110.272,138.411c0,0,147.762-7.143,150.887-6.919c3.125,0.223,32.365,12.946,32.365,12.946l4.241,9.598"/>
						
							<polyline style="fill:none;stroke:#1D1D1B;stroke-width:0.75;stroke-linecap:round;stroke-linejoin:round;stroke-miterlimit:10;" points="
							270.645,161.401 278.903,153.142 379.01,158.053 						"/>
						
							<path style="fill:none;stroke:#1D1D1B;stroke-width:0.75;stroke-linecap:round;stroke-linejoin:round;stroke-miterlimit:10;" d="
							M270.645,166.088l8.259-8.817c0,0,51.225,2.344,55.243,2.79c4.018,0.446,8.035,4.91,8.259,13.839
							c0.223,8.928,5.134,129.017,5.134,129.017"/>
						
							<polygon style="fill:#1D1D1B;stroke:#1D1D1B;stroke-width:0.75;stroke-linecap:round;stroke-linejoin:round;stroke-miterlimit:10;" points="
							369.413,302.69 320.754,302.917 313.835,305.815 307.083,333.576 315.844,309.607 322.54,305.591 370.962,305.375 						"/>
						
							<polyline style="fill:none;stroke:#1D1D1B;stroke-width:0.75;stroke-linecap:round;stroke-linejoin:round;stroke-miterlimit:10;" points="
							243.824,238.15 245.534,252.109 247.096,330.311 251.672,336.84 						"/>
						
							<polyline style="fill:none;stroke:#1D1D1B;stroke-width:0.75;stroke-linecap:round;stroke-linejoin:round;stroke-miterlimit:10;" points="
							85.545,250.262 89.29,251.576 245.534,252.109 384.267,250.262 						"/>
						
							<polyline style="fill:none;stroke:#1D1D1B;stroke-width:0.75;stroke-linecap:round;stroke-linejoin:round;stroke-miterlimit:10;" points="
							84.82,272.326 88.279,273.673 245.982,274.561 385.411,270.329 						"/>
						
							<path style="fill:none;stroke:#1D1D1B;stroke-width:0.75;stroke-linecap:round;stroke-linejoin:round;stroke-miterlimit:10;" d="
							M261.158,131.492c0,0-0.44-11.383,8.708-19.865c9.148-8.482,55.128-48.882,55.128-48.882"/>
					</g>
					<g>
						<path style="fill:#6074D7;" d="M317.199,198.336c0,0,14.269,3.8,15.831,5.362c1.562,1.562,3.46,8.817,4.576,10.379
							c1.116,1.562,9.275,9.486,8.99,12.165c-0.285,2.678-3.745,11.607-9.883,9.04c-6.138-2.567-7.924-4.15-7.924-4.15l-0.558,4.894
							h-50.045l-26.514-9.449c0,0,1.005-4.352,1.786-8.928l22.432,1.451c0,0,8.593-12.165,10.491-13.281
							c1.897-1.116,12.537-5.532,12.537-5.532L317.199,198.336z"/>
						<path style="fill:#F5FAFF;" d="M327.556,220.867c0,0,5.733,0.911,6.887-10.026l1.732,1.772c0,0-0.801,9.841-7.832,10.117
							L327.556,220.867z"/>
						<g>
							<path style="fill:#F5FAFF;" d="M298.532,201.053l-5.902,7.556l6.808-2.79v2.79c0,0-5.915,15.662-6.25,27.417l3.314,0
								c0,0,0.815-11.347,2.935-18.043c2.12-6.696,3.571-10.293,3.571-10.293l3.173-1.537l5.532,3.013l5.934-11.718l-4.73-3.523
								L298.532,201.053z"/>
							
								<polygon style="stroke:#1D1D1B;stroke-width:0.75;stroke-linecap:round;stroke-linejoin:round;stroke-miterlimit:10;" points="
								311.714,209.167 306.182,208.162 302.824,208.162 306.182,206.6 							"/>
							
								<polygon style="stroke:#1D1D1B;stroke-width:0.75;stroke-linecap:round;stroke-linejoin:round;stroke-miterlimit:10;" points="
								292.63,208.609 299.438,207.883 299.438,205.819 							"/>
						</g>
						<g>
							<g>
								<path style="fill:#FFD367;" d="M332.357,210.841c0,0-4.464-6.919-5.803-9.375c-1.339-2.455-2.902-3.275-3.013-6.492
									c-0.112-3.217-0.781-3.217-2.232-2.102c-1.451,1.116-1.451,4.018-1.228,5.357c0.223,1.339,0.558,2.823,0.558,2.823
									s-7.028,1.437-7.532,3.102c-0.504,1.664,0.613,3.004,0.613,3.004s-1.474,2.455,0.825,3.683c0,0-0.267,3.013,1.63,3.013
									c0,0-0.335,2.232,2.902,1.786c3.236-0.446,6.696-1.786,6.696-1.786l2.567,3.795
									C328.34,217.649,332.357,215.751,332.357,210.841z"/>
								
									<polygon style="stroke:#1D1D1B;stroke-width:0.75;stroke-linecap:round;stroke-linejoin:round;stroke-miterlimit:10;" points="
									325.773,213.854 327.907,213.184 327.13,215.861 								"/>
							</g>
							
								<polygon style="fill:#1D1D1B;stroke:#1D1D1B;stroke-width:0.75;stroke-linecap:round;stroke-linejoin:round;stroke-miterlimit:10;" points="
								320.639,201.053 322.667,200.573 320.349,199.681 							"/>
						</g>
						<path style="fill:#FFD367;" d="M300.36,201.816l1.198,5.342c0,0,6.463-4.98,8.649-8.179L300.36,201.816z"/>
						<path style="fill:#61676A;" d="M317.183,181.141c0,0,1.037,3.585,0.016,6.821l-4.28,0.229l-0.684-7.58L317.183,181.141z"/>
						<path style="fill:#FFD367;" d="M295.119,182.187c0,0-0.815,14.146,6.327,17.494c7.142,3.348,11.049-8.259,11.049-8.259
							s4.051,0.781,4.704-3.46c0.653-4.241-3.253-3.571-4.369-2.12c0,0,0.781-6.919-3.739-8.705
							C304.572,175.351,295.6,175.184,295.119,182.187z"/>
						
							<path style="fill:#1D1D1B;stroke:#1D1D1B;stroke-width:0.75;stroke-linecap:round;stroke-linejoin:round;stroke-miterlimit:10;" d="
							M312.919,186.951c0,0,1.697-1.569,3.26,0"/>
						<path style="fill:#61676A;" d="M295.091,183.163c0,0-0.19,11.495,1.451,15.624s10.129,4.576,13.455,0.893
							c3.326-3.683,4.129-4.576,3.326-13.839l-0.266-4.059h-1.798c0,0,0,9.974-0.459,11.536c0,0-4.313-3.787-9.062-1.335
							c0,0-3.854-1.419-5.196,1.298L295.091,183.163z"/>
						<path style="fill:#FFD367;" d="M298.918,195.44l2.752-1.553c0,0,2.455,2,3.794,1.553
							C305.464,195.44,302.293,196.84,298.918,195.44z"/>
						
							<polygon style="fill:#1D1D1B;stroke:#1D1D1B;stroke-width:0.75;stroke-linecap:round;stroke-linejoin:round;stroke-miterlimit:10;" points="
							328.789,231.132 321.2,220.867 328.316,235.282 						"/>
						
							<path style="fill:none;stroke:#1D1D1B;stroke-width:0.75;stroke-linecap:round;stroke-linejoin:round;stroke-miterlimit:10;" d="
							M326.535,214.976c0,0-1.027,3.492,0,3.473c1.027-0.019,1.808-0.8,1.808-0.8s3.236-1.339,4.018-6.808
							c0,0,0.893-1.116,0.447-1.674c-0.447-0.558-1.519,0-1.519,0"/>
						
							<path style="fill:none;stroke:#1D1D1B;stroke-width:0.75;stroke-linecap:round;stroke-linejoin:round;stroke-miterlimit:10;" d="
							M326.535,218.449l2.255,5.338c0,0-1.228,4.576,1.897,6.808"/>
						
							<path style="fill:none;stroke:#1D1D1B;stroke-width:0.75;stroke-linecap:round;stroke-linejoin:round;stroke-miterlimit:10;" d="
							M327.91,221.705c0,0-2.179,0.821-1.375,3.181"/>
						
							<path style="fill:none;stroke:#1D1D1B;stroke-width:0.75;stroke-linecap:round;stroke-linejoin:round;stroke-miterlimit:10;" d="
							M300.36,209.167c0,0-3.489,10.85-4.549,16.306c-1.06,5.456-0.726,10.553-0.726,10.553"/>
						<ellipse style="fill:#F5FAFF;" cx="310.044" cy="220.653" rx="6.134" ry="3.868"/>
						<g>
							
								<polyline style="fill:none;stroke:#1D1D1B;stroke-width:0.75;stroke-linecap:round;stroke-linejoin:round;stroke-miterlimit:10;" points="
								301,184.577 300.36,191.688 302.824,191.457 							"/>
							
								<path style="fill:none;stroke:#1D1D1B;stroke-width:0.75;stroke-linecap:round;stroke-linejoin:round;stroke-miterlimit:10;" d="
								M308.605,196.062c-4.282,0.312-6.935-2.176-6.935-2.176s-3.527,2.294-5.168,2.203"/>
							<path style="fill:#1D1D1B;" d="M299.348,186.825c0,0.315-0.255,0.571-0.571,0.571c-0.315,0-0.571-0.255-0.571-0.571
								s0.255-0.571,0.571-0.571C299.092,186.254,299.348,186.509,299.348,186.825z"/>
							<g>
								<path style="fill:#1D1D1B;" d="M301.014,185.031c-0.241,0.367-1.198,0.126-2.237,0.126c-1.039,0-1.996,0.241-2.237-0.126
									s0.694-1.464,2.237-1.464C300.319,183.567,301.255,184.664,301.014,185.031z"/>
							</g>
							<path style="fill:#1D1D1B;" d="M306.379,186.825c0,0.315-0.255,0.571-0.571,0.571c-0.315,0-0.571-0.255-0.571-0.571
								s0.255-0.571,0.571-0.571C306.123,186.254,306.379,186.509,306.379,186.825z"/>
							<g>
								<path style="fill:#1D1D1B;" d="M308.045,185.031c-0.241,0.367-1.198,0.126-2.237,0.126c-1.039,0-1.996,0.241-2.237-0.126
									c-0.241-0.367,0.694-1.464,2.237-1.464C307.35,183.567,308.286,184.664,308.045,185.031z"/>
							</g>
						</g>
						<g>
							<g>
								<path style="fill:#6074D7;" d="M290.621,184.279c0,0,0.335,0.67,1.674,0c1.339-0.67,2.79-3.348,7.589-3.125
									c4.799,0.223,4.018,2.902,6.585,2.678c2.567-0.223,10.714-2.692,10.714-2.692s0.335-8.022-2.009-10.478
									c-2.344-2.455-10.267-3.348-15.178-1.786c-4.91,1.562-6.026,9.375-6.026,9.375L290.621,184.279z"/>
								
									<path style="fill:none;stroke:#1D1D1B;stroke-width:0.75;stroke-linecap:round;stroke-linejoin:round;stroke-miterlimit:10;" d="
									M293.969,178.253c0,0,3.125-3.125,9.263-1.116c6.138,2.009,8.362,4.714,11.77,4.645"/>
							</g>
							<path style="fill:#F5FAFF;" d="M307.269,172.561c0,1.653-2.125,2.993-4.746,2.993s-4.746-1.34-4.746-2.993
								c0-1.653,2.125-2.993,4.746-2.993S307.269,170.908,307.269,172.561z"/>
							
								<path style="fill:none;stroke:#1D1D1B;stroke-width:0.75;stroke-linecap:round;stroke-linejoin:round;stroke-miterlimit:10;" d="
								M310.044,168.491c0,0,3.121,1.503,3.567,4.74c0.446,3.236,0.937,6.124,0.937,6.124"/>
						</g>
						
							<line style="fill:none;stroke:#1D1D1B;stroke-width:0.75;stroke-linecap:round;stroke-linejoin:round;stroke-miterlimit:10;" x1="332.807" y1="209.167" x2="337.606" y2="214.077"/>
					</g>
					<g>
						<g>
							<path style="fill:#3D3D3F;" d="M274.997,235.282l11.383,23.213c0,0-4.687,2.009-3.125,6.696
								c1.563,4.687,11.607,8.035,14.062,4.911c2.455-3.125,1.786-11.16,0-12.053c-1.786-0.893-6.696-0.893-6.696-0.893
								l-10.642-21.874H274.997z"/>
							
								<polygon style="fill:#1D1D1B;stroke:#1D1D1B;stroke-width:0.75;stroke-linecap:round;stroke-linejoin:round;stroke-miterlimit:10;" points="
								274.997,235.282 276.404,238.15 281.375,238.15 279.98,235.282 							"/>
							
								<polygon style="fill:#1D1D1B;stroke:#1D1D1B;stroke-width:0.75;stroke-linecap:round;stroke-linejoin:round;stroke-miterlimit:10;" points="
								290.621,257.156 288.166,257.156 288.166,252.109 							"/>
							
								<path style="fill:none;stroke:#1D1D1B;stroke-width:0.75;stroke-linecap:round;stroke-linejoin:round;stroke-miterlimit:10;" d="
								M295.978,259.611c0,0,1.63,6.494-0.859,11.617"/>
						</g>
						<g>
							<path style="fill:#3D3D3F;" d="M279.836,235.282h-18.383c-1.889,0-3.42-1.531-3.42-3.42v-64.363
								c0-1.889,1.531-3.42,3.42-3.42h18.383c1.888,0,3.419,1.531,3.419,3.42v64.363
								C283.255,233.751,281.724,235.282,279.836,235.282z"/>
						</g>
						
							<path style="fill:none;stroke:#1D1D1B;stroke-width:0.75;stroke-linecap:round;stroke-linejoin:round;stroke-miterlimit:10;" d="
							M280.8,167.204v63.928c0,0-0.67,2.811-3.794,2.811"/>
					</g>
					<g>
						<path style="fill:#4F5151;" d="M210.178,329.387l-103.523-2.021c-2.477-0.048-4.445-2.095-4.397-4.572l0.871-44.614
							c0.048-2.477,2.095-4.445,4.572-4.397l103.523,2.021c2.477,0.048,4.445,2.095,4.397,4.572l-0.871,44.613
							C214.702,327.467,212.655,329.435,210.178,329.387z"/>
						
							<path style="fill:none;stroke:#1D1D1B;stroke-width:0.75;stroke-linecap:round;stroke-linejoin:round;stroke-miterlimit:10;" d="
							M206.027,323.043l-95.791-1.589c-2.373-0.046-4.258-2.007-4.212-4.38l0.669-34.28c0.046-2.373,2.007-4.258,4.38-4.212
							l95.791,1.589c2.372,0.046,4.258,2.007,4.212,4.38l-0.669,34.28C210.36,321.203,208.399,323.089,206.027,323.043z"/>
						
							<line style="fill:none;stroke:#1D1D1B;stroke-width:0.75;stroke-linecap:round;stroke-linejoin:round;stroke-miterlimit:10;" x1="106.557" y1="289.737" x2="210.935" y2="291.761"/>
						
							<line style="fill:none;stroke:#1D1D1B;stroke-width:0.75;stroke-linecap:round;stroke-linejoin:round;stroke-miterlimit:10;" x1="106.557" y1="299.788" x2="210.717" y2="302.917"/>
						
							<line style="fill:none;stroke:#1D1D1B;stroke-width:0.75;stroke-linecap:round;stroke-linejoin:round;stroke-miterlimit:10;" x1="106.17" y1="309.607" x2="210.529" y2="312.525"/>
					</g>
					<g>
						<g>
							<path style="fill:#B4D3F3;" d="M371.073,166.907l-19.69,0.393c-2.697,0.054-4.84,2.284-4.786,4.981l0.971,48.585
								l26.189-53.213C372.979,167.167,372.059,166.888,371.073,166.907z"/>
							<path style="fill:#B4D3F3;" d="M349.092,234.451c0.914,0.985,2.215,1.603,3.665,1.574l19.69-0.394
								c2.697-0.054,4.84-2.284,4.786-4.981l-1.025-51.295L349.092,234.451z"/>
							<path style="fill:#F5FAFF;" d="M376.054,171.693c-0.034-1.711-0.948-3.194-2.298-4.04l-26.189,53.213l0.207,10.373
								c0.025,1.248,0.529,2.364,1.317,3.212l27.116-55.096L376.054,171.693z"/>
						</g>
						
							<path style="fill:none;stroke:#1D1D1B;stroke-width:0.75;stroke-linecap:round;stroke-linejoin:round;stroke-miterlimit:10;" d="
							M346.597,172.282l1.178,58.957c0,0,0.392,4.878,4.981,4.786c4.59-0.092,21,0.001,21,0.001"/>
					</g>
					<g>
						<path style="fill:#3D3D3F;" d="M77.07,387.396v-47.375l2.511-4.185l171.254,8.203l61.437-0.67l-2.344,52.9
							c0,0-29.296,7.533-35.155,7.533c-5.859,0-191.626-12.053-191.626-12.053L77.07,387.396z"/>
						<g>
							<path style="fill:#FFD367;" d="M266.979,380.339l-50.677-0.989c-2.46-0.048-4.415-2.081-4.367-4.541l0.316-16.198
								c0.048-2.46,2.081-4.415,4.541-4.367l50.677,0.989c2.46,0.048,4.415,2.081,4.367,4.541l-0.316,16.198
								C271.472,378.432,269.439,380.387,266.979,380.339z"/>
							<path style="fill:#F5FAFF;" d="M243.822,366.743c-0.089,4.576-3.871,8.212-8.447,8.123c-4.576-0.089-8.212-3.871-8.123-8.447
								c0.089-4.576,3.871-8.212,8.447-8.123C240.275,358.386,243.911,362.168,243.822,366.743z"/>
							<circle style="fill:none;stroke:#1D1D1B;stroke-miterlimit:10;" cx="224.24" cy="366.361" r="6.612"/>
							
								<line style="fill:none;stroke:#1D1D1B;stroke-width:0.75;stroke-linecap:round;stroke-linejoin:round;stroke-miterlimit:10;" x1="269.354" y1="358.284" x2="268.985" y2="377.197"/>
							
								<line style="fill:none;stroke:#1D1D1B;stroke-width:0.75;stroke-linecap:round;stroke-linejoin:round;stroke-miterlimit:10;" x1="215.196" y1="379.328" x2="267.959" y2="380.282"/>
						</g>
						<g>
							<path style="fill:#FFD367;" d="M95.191,367.442l-18.793-0.367l0.431-22.093l18.793,0.367c2.506,0.049,4.498,2.12,4.449,4.626
								l-0.254,13.018C99.768,365.499,97.697,367.491,95.191,367.442z"/>
							<path style="fill:#F5FAFF;" d="M96.309,355.576c-0.089,4.576-2.655,8.236-5.73,8.176c-3.075-0.06-5.496-3.818-5.406-8.394
								c0.089-4.576,2.655-8.236,5.73-8.176C93.977,347.242,96.398,351,96.309,355.576z"/>
							<path style="fill:none;stroke:#1D1D1B;stroke-miterlimit:10;" d="M87.591,355.405c-0.071,3.651-2.118,6.572-4.572,6.524
								c-2.454-0.048-4.385-3.047-4.314-6.698c0.071-3.651,2.118-6.572,4.572-6.524C85.731,348.755,87.662,351.754,87.591,355.405z"
								/>
							
								<line style="fill:none;stroke:#1D1D1B;stroke-width:0.75;stroke-linecap:round;stroke-linejoin:round;stroke-miterlimit:10;" x1="100.075" y1="349.784" x2="99.813" y2="363.184"/>
							
								<line style="fill:none;stroke:#1D1D1B;stroke-width:0.75;stroke-linecap:round;stroke-linejoin:round;stroke-miterlimit:10;" x1="76.398" y1="367.075" x2="95.382" y2="367.445"/>
						</g>
						<g>
							
								<rect x="133.02" y="349.577" transform="matrix(0.9998 0.0195 -0.0195 0.9998 7.0689 -3.0096)" style="fill:#B4D3F3;" width="49.384" height="22.097"/>
							
								<polyline style="fill:none;stroke:#1D1D1B;stroke-width:0.75;stroke-linecap:round;stroke-linejoin:round;stroke-miterlimit:10;" points="
								132.809,371.19 182.184,372.154 182.615,350.061 							"/>
							
								<rect x="136.211" y="352.254" transform="matrix(0.9998 0.0195 -0.0195 0.9998 7.0593 -3.0084)" style="fill:none;stroke:#1D1D1B;stroke-width:0.75;stroke-linecap:round;stroke-linejoin:round;stroke-miterlimit:10;" width="42.855" height="15.736"/>
						</g>
						
							<polyline style="fill:none;stroke:#1D1D1B;stroke-width:0.75;stroke-linecap:round;stroke-linejoin:round;stroke-miterlimit:10;" points="
							80.92,337.845 249.328,346.884 309.259,346.047 307.25,393.925 						"/>
						
							<polygon style="fill:#1D1D1B;stroke:#1D1D1B;stroke-width:0.75;stroke-linecap:round;stroke-linejoin:round;stroke-miterlimit:10;" points="
							79.581,335.836 91.467,330.311 251.672,336.84 307.083,333.576 312.272,343.369 250.835,344.038 						"/>
						
							<polyline style="fill:none;stroke:#1D1D1B;stroke-width:0.75;stroke-linecap:round;stroke-linejoin:round;stroke-miterlimit:10;" points="
							77.07,387.396 274.997,399.561 303.121,393.925 						"/>
					</g>
					
						<polyline style="fill:none;stroke:#1D1D1B;stroke-width:0.75;stroke-linecap:round;stroke-linejoin:round;stroke-miterlimit:10;" points="
						291.068,134.17 283.479,131.045 330.129,111.403 					"/>
				</g>
				
					<line style="fill:none;stroke:#1D1D1B;stroke-width:0.75;stroke-linecap:round;stroke-linejoin:round;stroke-miterlimit:10;" x1="432.33" y1="317.97" x2="506.237" y2="312.334"/>
				
					<line style="fill:none;stroke:#1D1D1B;stroke-width:0.75;stroke-linecap:round;stroke-linejoin:round;stroke-miterlimit:10;" x1="411.086" y1="289.297" x2="503.782" y2="285.28"/>
				
					<line style="fill:none;stroke:#1D1D1B;stroke-width:0.75;stroke-linecap:round;stroke-linejoin:round;stroke-miterlimit:10;" x1="433.696" y1="317.866" x2="433.696" y2="343.379"/>
				
					<polyline style="fill:none;stroke:#1D1D1B;stroke-width:0.75;stroke-linecap:round;stroke-linejoin:round;stroke-miterlimit:10;" points="
					411.086,374.673 407.357,318.133 409.222,265.42 				"/>
				
					<line style="fill:none;stroke:#1D1D1B;stroke-width:0.75;stroke-linecap:round;stroke-linejoin:round;stroke-miterlimit:10;" x1="407.357" y1="77.476" x2="407.357" y2="265.42"/>
				
					<line style="fill:none;stroke:#1D1D1B;stroke-width:0.75;stroke-linecap:round;stroke-linejoin:round;stroke-miterlimit:10;" x1="409.222" y1="95.109" x2="671.014" y2="131.486"/>
				
					<line style="fill:none;stroke:#1D1D1B;stroke-width:0.75;stroke-linecap:round;stroke-linejoin:round;stroke-miterlimit:10;" x1="407.357" y1="250.262" x2="672.525" y2="245.996"/>
				
					<ellipse transform="matrix(0.0561 -0.9984 0.9984 0.0561 342.0328 724.8244)" style="fill:#FFFFFF;" cx="554.362" cy="181.518" rx="43.955" ry="85.078"/>
			</g>
		</g>
	</g>
</g>
</svg>
